<svg width="286" height="420" viewBox="0 0 286 420" fill="none" xmlns="http://www.w3.org/2000/svg">
<path d="M281.715 306.615C258.148 399.285 186.374 460 100.674 460C-37.5165 460 -135 354.548 -135 206.489C-135 55.2342 -26.8041 -63 110.316 -63C206.728 -63 286 -6.54582 286 62.6905C286 93.5805 262.433 118.079 232.438 118.079C189.588 118.079 169.234 88.2546 177.804 39.2566H200.3C196.015 4.10593 158.522 -19.3279 106.031 -19.3279C21.4021 -19.3279 -30.0178 54.1691 -30.0178 177.729C-30.0178 302.354 35.3282 392.894 125.313 392.894C196.015 392.894 237.794 369.46 279.573 305.55L281.715 306.615Z" fill="#EBDACA"/>
</svg>
