<svg width="196" height="420" viewBox="0 0 196 420" fill="none" xmlns="http://www.w3.org/2000/svg">
<path d="M194.602 421.058V440H376.813V421.058L361.508 419.601C333.083 416.686 319.235 400.658 319.235 370.788V7.24051C319.235 -12.4304 324.337 -18.2588 352.762 -32.1012L379 -44.4866L252.181 -77.2714V-32.1012L274.775 -0.77356V23.2686L261.656 3.59776C225.213 -51.0436 186.585 -78 141.396 -78C59.0365 -78 0 -8.78761 0 86.6526C0 197.392 75.0711 278.99 177.11 278.99C206.992 278.99 231.773 273.89 252.181 263.691V370.788C252.181 400.658 238.333 416.686 209.908 419.601L194.602 421.058ZM172.737 -32.1012C204.077 -32.1012 233.231 -10.9733 252.181 18.8973V219.249C233.231 236.734 204.077 249.848 178.567 249.848C115.158 249.848 72.8846 190.835 72.8846 103.409C72.8846 23.9972 113.7 -32.1012 172.737 -32.1012Z" fill="#3E3128"/>
</svg>
